
General 
Complete name : Trouble With The Curve 2012 CAM x264 AAC-UNiQUE.mp4 
Format : MPEG-4 
Format profile : Base Media 
Codec ID : isom 
File size : 1.46 GiB 
Duration : 1h 45mn 
Overall bit rate mode : Variable 
Overall bit rate : 1 973 Kbps 
Encoded date : UTC 2012-10-06 17:42:30 

Video 
ID : 1 
Format : AVC 
Format/Info : Advanced Video Codec 
Format profile : High@L4.1 
Format settings, CABAC : Yes 
Format settings, ReFrames : 3 frames 
Codec ID : avc1 
Codec ID/Info : Advanced Video Coding 
Duration : 1h 45mn 
Bit rate mode : Variable 
Bit rate : 1 879 Kbps 
Maximum bit rate : 40.0 Mbps 
Width : 592 pixels 
Height : 272 pixels 
Display aspect ratio : 2.2:1 
Frame rate mode : Constant 
Frame rate : 29.970 fps 
Color space : YUV 
Chroma subsampling : 4:2:0 
Bit depth : 8 bits 
Scan type : Progressive 
Bits/(Pixel*Frame) : 0.389 
Stream size : 1.39 GiB (95%) 
Writing library : x264 core 128 r2216 198a7ea 

Audio 
ID : 2 
Format : AAC 
Format/Info : Advanced Audio Codec 
Format profile : LC 
Codec ID : 40 
Duration : 1h 45mn 
Bit rate mode : Variable 
Bit rate : 90.4 Kbps 
Maximum bit rate : 99.9 Kbps 
Channel(s) : 2 channels 
Channel positions : Front: L R 
Sampling rate : 48.0 KHz 
Compression mode : Lossy 
Stream size : 68.4 MiB (5%) 
Language : English 
Encoded date : UTC 2012-10-06 17:43:18 

Source : HP - Thanks! 

Storyline 
An ailing baseball scout in his twilight years takes his daughter along for one last recruiting trip. 

iMDB: http://www.imdb.com/title/tt2083383/